<svg version="1.0" xmlns="http://www.w3.org/2000/svg"
 width="500.000000pt" height="250.000000pt" viewBox="0 0 500.000000 250.000000"
 preserveAspectRatio="xMidYMid meet">

<g transform="translate(0.000000,250.000000) scale(0.100000,-0.100000)"
fill="#000000" stroke="none">
<path d="M1736 1515 c-22 -17 -35 -79 -35 -177 l-1 -67 -47 -36 -46 -35 -19
27 c-22 34 -23 52 -2 81 18 26 51 29 57 5 3 -12 5 -8 6 9 2 53 -85 44 -114
-13 -21 -39 -19 -61 10 -103 l24 -36 -24 -36 c-34 -50 -14 -85 38 -65 39 15
50 37 44 84 -6 40 -4 44 29 66 19 13 36 22 37 20 2 -2 1 -38 -3 -79 -6 -76 -2
-90 31 -90 12 0 18 14 23 56 6 56 42 140 69 162 20 17 47 4 47 -23 0 -22 -50
-75 -71 -75 -19 0 -7 -34 33 -96 41 -63 66 -80 104 -72 9 1 19 9 22 17 3 9 0
11 -7 6 -16 -9 -54 27 -90 86 l-29 46 39 37 c32 30 39 43 39 75 0 39 -11 51
-49 51 -20 0 -61 -41 -85 -85 -19 -33 -19 -36 1 198 6 79 2 87 -31 62z m-141
-396 c0 -17 -6 -25 -22 -27 -25 -4 -29 9 -12 39 14 26 34 19 34 -12z"/>
<path d="M2603 1515 c-31 -22 -54 -90 -60 -177 -6 -76 -6 -77 -48 -107 l-41
-30 -17 29 c-22 36 -21 63 1 83 22 20 39 22 45 5 2 -7 8 -9 13 -5 13 13 -11
42 -37 45 -38 4 -79 -36 -86 -84 -4 -33 -1 -45 22 -72 l27 -32 -26 -31 c-30
-35 -33 -54 -10 -67 48 -27 101 23 90 86 -5 34 -2 41 24 60 16 12 32 22 35 22
4 0 5 -37 3 -82 l-3 -83 28 -3 c26 -3 27 -2 27 46 0 40 7 58 38 102 56 81 61
77 64 -42 3 -103 3 -103 29 -106 21 -2 34 6 62 38 l36 42 15 -31 c9 -17 25
-35 35 -41 28 -15 77 -12 111 5 29 15 70 79 70 109 0 13 28 36 44 36 3 0 6
-23 6 -51 0 -43 5 -55 29 -80 54 -54 122 -34 181 52 29 42 36 48 47 36 12 -12
11 -20 -11 -51 -35 -52 -16 -87 37 -67 39 15 50 37 44 84 -6 42 -5 43 44 77
28 19 46 36 40 38 -6 2 -30 -11 -52 -29 -46 -36 -67 -33 -83 14 -7 19 -5 32 8
51 19 30 52 34 59 9 3 -11 5 -8 6 9 2 61 -97 39 -119 -27 -6 -19 -8 -44 -5
-55 7 -23 -11 -57 -53 -102 -33 -36 -84 -38 -106 -6 -24 34 -19 46 23 58 45
12 91 60 91 95 0 32 -25 55 -61 55 -34 0 -89 -25 -89 -41 0 -16 -47 -59 -65
-59 -9 0 -15 9 -15 24 0 32 -46 86 -73 86 -29 0 -90 -22 -111 -40 -22 -18 -42
-56 -50 -99 -6 -36 -50 -101 -67 -101 -6 0 -9 43 -7 113 l3 112 -30 0 c-26 0
-36 -9 -70 -62 -22 -34 -43 -62 -47 -62 -16 -2 -7 39 22 102 32 67 47 148 36
191 -7 29 -22 33 -53 11z m22 -156 c-9 -27 -19 -49 -22 -49 -11 0 6 139 19
162 12 22 13 21 16 -20 2 -24 -4 -65 -13 -93z m359 -51 c7 -13 16 -35 20 -50
5 -24 3 -28 -16 -28 -30 0 -58 28 -58 60 0 46 30 56 54 18z m251 -7 c11 -37
-17 -82 -62 -95 -20 -6 -23 -4 -23 21 0 63 69 124 85 74z m-338 -32 c0 -37 34
-68 75 -69 15 0 29 -4 32 -8 7 -12 -25 -73 -45 -85 -24 -15 -64 0 -77 28 -16
34 -15 138 0 153 16 16 15 17 15 -19z m-452 -150 c0 -17 -6 -25 -22 -27 -25
-4 -29 9 -12 39 14 26 34 19 34 -12z m950 0 c0 -17 -6 -25 -22 -27 -25 -4 -29
9 -12 39 14 26 34 19 34 -12z"/>
<path d="M1974 1325 c-24 -24 -25 -29 -22 -137 l3 -113 31 -3 c25 -2 37 4 60
31 16 19 34 42 41 53 11 17 12 15 12 -16 1 -29 -9 -47 -54 -98 -65 -74 -85
-110 -85 -150 0 -39 28 -62 77 -62 72 0 103 66 103 222 0 67 1 70 50 135 49
65 72 117 26 58 -13 -16 -33 -41 -45 -55 l-22 -25 5 55 c3 30 9 72 12 93 7 41
0 45 -34 21 -15 -11 -22 -25 -22 -50 0 -62 -62 -174 -97 -174 -13 0 -15 11 -9
78 3 42 9 96 12 120 7 49 -5 54 -42 17z m104 -430 c-16 -48 -40 -56 -64 -20
-22 33 -9 80 38 145 l33 45 3 -66 c2 -36 -3 -83 -10 -104z"/>
<path d="M2684 872 c-28 -10 -101 -46 -162 -80 l-110 -62 -59 26 c-76 34 -187
57 -235 49 -75 -13 -121 -78 -99 -138 27 -71 165 -77 313 -13 l87 38 62 -35
61 -35 -72 -42 c-133 -77 -179 -95 -250 -95 -36 0 -71 2 -79 5 -7 3 -16 -1
-18 -8 -8 -22 64 -44 119 -37 45 6 175 65 289 131 l47 26 63 -25 c93 -36 163
-50 225 -45 66 6 101 35 111 91 5 31 1 40 -24 66 -57 56 -164 51 -301 -14
l-75 -35 -65 36 -64 36 68 41 c160 93 246 118 327 93 21 -6 27 -5 27 6 0 38
-102 49 -186 20z m-370 -136 l61 -23 -40 -20 c-154 -77 -304 -66 -288 21 13
69 119 77 267 22z m571 -46 c39 -9 65 -32 65 -58 0 -7 -13 -27 -29 -43 -23
-23 -38 -29 -71 -29 -47 0 -136 21 -196 46 l-39 16 48 24 c40 21 139 51 172
53 6 0 28 -4 50 -9z"/>
</g>
</svg>
